<svg width="34" height="34" viewBox="0 0 34 34" fill="none" xmlns="http://www.w3.org/2000/svg">
<path d="M23.4707 2.76123H9.6647C5.85229 2.76123 2.76172 5.8518 2.76172 9.66422V23.4702C2.76172 27.2826 5.85229 30.3732 9.6647 30.3732H23.4707C27.2831 30.3732 30.3737 27.2826 30.3737 23.4702V9.66422C30.3737 5.8518 27.2831 2.76123 23.4707 2.76123Z" stroke="#33CC99" stroke-width="2" stroke-linecap="round" stroke-linejoin="round"/>
<path d="M22.0886 15.6975C22.2589 16.8465 22.0627 18.0199 21.5277 19.0509C20.9927 20.082 20.1463 20.9181 19.1087 21.4403C18.0712 21.9625 16.8954 22.1443 15.7486 21.9597C14.6018 21.7752 13.5423 21.2338 12.721 20.4124C11.8996 19.5911 11.3582 18.5316 11.1737 17.3848C10.9891 16.238 11.1709 15.0622 11.6931 14.0247C12.2153 12.9871 13.0514 12.1407 14.0825 11.6057C15.1135 11.0707 16.287 10.8745 17.436 11.0448C18.608 11.2186 19.693 11.7648 20.5308 12.6026C21.3686 13.4404 21.9148 14.5254 22.0886 15.6975Z" stroke="#33CC99" stroke-width="2" stroke-linecap="round" stroke-linejoin="round"/>
<path d="M24.1602 8.97388H24.1742" stroke="#33CC99" stroke-width="2" stroke-linecap="round" stroke-linejoin="round"/>
</svg>
