<svg width="34" height="34" viewBox="0 0 34 34" fill="none" xmlns="http://www.w3.org/2000/svg">
<g clip-path="url(#clip0_401_224)">
<path d="M32.5294 4.14181C31.2073 5.07437 29.7435 5.78764 28.1943 6.25413C27.3628 5.29808 26.2578 4.62045 25.0286 4.3129C23.7995 4.00535 22.5056 4.08272 21.3218 4.53453C20.1381 4.98634 19.1216 5.7908 18.41 6.83911C17.6984 7.88742 17.3258 9.12899 17.3428 10.3959V11.7765C14.9166 11.8394 12.5125 11.3013 10.3446 10.2102C8.17668 9.11897 6.31228 7.50859 4.91744 5.52241C4.91744 5.52241 -0.604944 17.9478 11.8204 23.4702C8.97713 25.4002 5.59001 26.3679 2.15625 26.2314C14.5816 33.1343 29.7682 26.2314 29.7682 10.3545C29.7669 9.96994 29.7299 9.58633 29.6577 9.2086C31.0668 7.81902 32.0611 6.06459 32.5294 4.14181V4.14181Z" stroke="#33CC99" stroke-width="2" stroke-linecap="round" stroke-linejoin="round"/>
</g>
<defs>
<clipPath id="clip0_401_224">
<rect width="33.1343" height="33.1343" fill="white" transform="translate(0.775391)"/>
</clipPath>
</defs>
</svg>
