<svg width="34" height="34" viewBox="0 0 34 34" fill="none" xmlns="http://www.w3.org/2000/svg">
<path d="M31.9849 8.86351C31.8209 8.20829 31.4869 7.60795 31.0167 7.12313C30.5464 6.63832 29.9565 6.28619 29.3066 6.10231C26.932 5.52246 17.4334 5.52246 17.4334 5.52246C17.4334 5.52246 7.93494 5.52246 5.56032 6.15754C4.9104 6.34141 4.32051 6.69354 3.85023 7.17836C3.37996 7.66318 3.04596 8.26351 2.88196 8.91873C2.44737 11.3286 2.23478 13.7733 2.24688 16.2221C2.23139 18.6893 2.44399 21.1526 2.88196 23.5807C3.06276 24.2155 3.40425 24.793 3.87342 25.2574C4.3426 25.7217 4.92361 26.0572 5.56032 26.2314C7.93494 26.8665 17.4334 26.8665 17.4334 26.8665C17.4334 26.8665 26.932 26.8665 29.3066 26.2314C29.9565 26.0475 30.5464 25.6954 31.0167 25.2106C31.4869 24.7258 31.8209 24.1254 31.9849 23.4702C32.4162 21.0785 32.6288 18.6524 32.62 16.2221C32.6355 13.7549 32.4229 11.2916 31.9849 8.86351V8.86351Z" stroke="#33CC99" stroke-width="2" stroke-linecap="round" stroke-linejoin="round"/>
<path d="M14.3262 20.7366L22.2646 16.2221L14.3262 11.7075V20.7366Z" stroke="#33CC99" stroke-width="2" stroke-linecap="round" stroke-linejoin="round"/>
</svg>
