<svg width="778" height="720" viewBox="0 0 778 720" fill="none" xmlns="http://www.w3.org/2000/svg">
<path fill-rule="evenodd" clip-rule="evenodd" d="M449.673 255.042C530.414 251.913 618.441 243.013 683.833 283.674C749.226 324.335 757.057 401.542 788.044 465.44C822.487 536.464 903.65 604.958 874.978 677.837C846.286 750.766 726.583 754.938 655.58 802.138C580.863 851.808 543.913 953.479 449.673 960.566C355.716 967.632 288.256 886.79 215.686 835.221C148.323 787.353 78.5402 741.246 44.0856 672.353C7.32122 598.84 -19.1498 512.884 17.7396 439.418C53.7665 367.669 148.782 336.097 230.428 301.246C299.471 271.774 372.6 258.029 449.673 255.042Z" fill="#59DBB7"/>
<path fill-rule="evenodd" clip-rule="evenodd" d="M702.871 -207.898C808.017 -183.417 891.689 -122.629 971.151 -49.5952C1055.84 28.2387 1132.65 151.665 1126.79 266.491C1120.99 380.046 996.92 441.384 905.121 508.565C832.116 561.993 753.36 605.854 662.871 605.999C572.231 606.145 487.373 569.759 419.84 509.346C347.876 444.969 309.32 359.455 283.349 266.491C242.876 121.621 131.563 -52.0848 231.597 -164.471C330.923 -276.064 557.315 -241.788 702.871 -207.898Z" fill="#146354"/>
<path fill-rule="evenodd" clip-rule="evenodd" d="M702.871 -207.898C808.017 -183.417 891.689 -122.629 971.151 -49.5952C1055.84 28.2387 1132.65 151.665 1126.79 266.491C1120.99 380.046 996.92 441.384 905.121 508.565C832.116 561.993 753.36 605.854 662.871 605.999C572.231 606.145 487.373 569.759 419.84 509.346C347.876 444.969 309.32 359.455 283.349 266.491C242.876 121.621 131.563 -52.0848 231.597 -164.471C330.923 -276.064 557.315 -241.788 702.871 -207.898Z" stroke="#146354"/>
<path fill-rule="evenodd" clip-rule="evenodd" d="M686.871 -207.898C792.017 -183.417 875.689 -122.629 955.151 -49.5952C1039.84 28.2387 1116.65 151.665 1110.79 266.491C1104.99 380.046 980.92 441.384 889.121 508.565C816.116 561.993 737.36 605.854 646.871 605.999C556.231 606.145 471.373 569.759 403.84 509.346C331.876 444.969 293.32 359.455 267.349 266.491C226.876 121.621 115.563 -52.0848 215.597 -164.471C314.923 -276.064 541.315 -241.788 686.871 -207.898Z" stroke="#146354"/>
<path fill-rule="evenodd" clip-rule="evenodd" d="M670.871 -207.898C776.017 -183.417 859.689 -122.629 939.151 -49.5952C1023.84 28.2387 1100.65 151.665 1094.79 266.491C1088.99 380.046 964.92 441.384 873.121 508.565C800.116 561.993 721.36 605.854 630.871 605.999C540.231 606.145 455.373 569.759 387.84 509.346C315.876 444.969 277.32 359.455 251.349 266.491C210.876 121.621 99.5633 -52.0848 199.597 -164.471C298.923 -276.064 525.315 -241.788 670.871 -207.898Z" stroke="#146354"/>
<path fill-rule="evenodd" clip-rule="evenodd" d="M654.871 -207.898C760.017 -183.417 843.689 -122.629 923.151 -49.5952C1007.84 28.2387 1084.65 151.665 1078.79 266.491C1072.99 380.046 948.92 441.384 857.121 508.565C784.116 561.993 705.36 605.854 614.871 605.999C524.231 606.145 439.373 569.759 371.84 509.346C299.876 444.969 261.32 359.455 235.349 266.491C194.876 121.621 83.5633 -52.0848 183.597 -164.471C282.923 -276.064 509.315 -241.788 654.871 -207.898Z" stroke="#146354"/>
<path fill-rule="evenodd" clip-rule="evenodd" d="M638.871 -207.898C744.017 -183.417 827.689 -122.629 907.151 -49.5952C991.835 28.2387 1068.65 151.665 1062.79 266.491C1056.99 380.046 932.92 441.384 841.121 508.565C768.116 561.993 689.36 605.854 598.871 605.999C508.231 606.145 423.373 569.759 355.84 509.346C283.876 444.969 245.32 359.455 219.349 266.491C178.876 121.621 67.5633 -52.0848 167.597 -164.471C266.923 -276.064 493.315 -241.788 638.871 -207.898Z" stroke="#146354"/>
<path fill-rule="evenodd" clip-rule="evenodd" d="M604.219 362.012C554.083 332.857 553.541 259.999 516.65 214.788C482.355 172.758 410.405 163.069 398.324 109.68C386.225 56.2133 426.944 5.07767 459.156 -39.2842C488.263 -79.3715 529.379 -104.631 571.866 -129.322C619.18 -156.819 665.205 -192.957 719.4 -190.524C777.892 -187.898 840.291 -164.509 873.721 -115.769C906.198 -68.4182 884.052 -4.56416 886.671 53.354C889.086 106.765 903.388 158.464 888.447 209.865C870.18 272.71 850.025 344.998 793.029 375.508C735.539 406.282 660.226 394.582 604.219 362.012Z" fill="#59DBB7"/>
</svg>
