<svg width="1128" height="1208" viewBox="0 0 1128 1208" fill="none" xmlns="http://www.w3.org/2000/svg">
<path fill-rule="evenodd" clip-rule="evenodd" d="M449.673 502.043C530.414 498.914 618.441 490.014 683.833 530.675C749.226 571.336 757.057 648.543 788.044 712.441C822.486 783.465 903.65 851.959 874.978 924.838C846.286 997.767 726.583 1001.94 655.58 1049.14C580.863 1098.81 543.913 1200.48 449.673 1207.57C355.716 1214.63 288.256 1133.79 215.686 1082.22C148.323 1034.35 78.5402 988.247 44.0856 919.354C7.32122 845.841 -19.1498 759.885 17.7396 686.419C53.7665 614.67 148.782 583.098 230.428 548.247C299.471 518.775 372.6 505.03 449.673 502.043Z" fill="#59DBB7"/>
<path fill-rule="evenodd" clip-rule="evenodd" d="M702.871 39.1029C808.017 63.5839 891.689 124.372 971.151 197.406C1055.84 275.24 1132.65 398.666 1126.79 513.492C1120.99 627.047 996.92 688.385 905.121 755.566C832.116 808.994 753.36 852.855 662.871 853C572.231 853.146 487.373 816.76 419.84 756.347C347.876 691.97 309.32 606.456 283.349 513.492C242.876 368.622 131.563 194.916 231.597 82.5297C330.923 -29.0626 557.315 5.21335 702.871 39.1029Z" fill="#146354"/>
<path fill-rule="evenodd" clip-rule="evenodd" d="M702.871 39.1029C808.017 63.5839 891.689 124.372 971.151 197.406C1055.84 275.24 1132.65 398.666 1126.79 513.492C1120.99 627.047 996.92 688.385 905.121 755.566C832.116 808.994 753.36 852.855 662.871 853C572.231 853.146 487.373 816.76 419.84 756.347C347.876 691.97 309.32 606.456 283.349 513.492C242.876 368.622 131.563 194.916 231.597 82.5297C330.923 -29.0626 557.315 5.21335 702.871 39.1029Z" stroke="#146354"/>
<path fill-rule="evenodd" clip-rule="evenodd" d="M686.871 39.1029C792.017 63.5839 875.689 124.372 955.151 197.406C1039.84 275.24 1116.65 398.666 1110.79 513.492C1104.99 627.047 980.92 688.385 889.121 755.566C816.116 808.994 737.36 852.855 646.871 853C556.231 853.146 471.373 816.76 403.84 756.347C331.876 691.97 293.32 606.456 267.349 513.492C226.876 368.622 115.563 194.916 215.597 82.5297C314.923 -29.0626 541.315 5.21335 686.871 39.1029Z" stroke="#146354"/>
<path fill-rule="evenodd" clip-rule="evenodd" d="M670.871 39.1029C776.017 63.5839 859.689 124.372 939.151 197.406C1023.84 275.24 1100.65 398.666 1094.79 513.492C1088.99 627.047 964.92 688.385 873.121 755.566C800.116 808.994 721.36 852.855 630.871 853C540.231 853.146 455.373 816.76 387.84 756.347C315.876 691.97 277.32 606.456 251.349 513.492C210.876 368.622 99.5633 194.916 199.597 82.5297C298.923 -29.0626 525.315 5.21335 670.871 39.1029Z" stroke="#146354"/>
<path fill-rule="evenodd" clip-rule="evenodd" d="M654.871 39.1029C760.017 63.5839 843.689 124.372 923.151 197.406C1007.84 275.24 1084.65 398.666 1078.79 513.492C1072.99 627.047 948.92 688.385 857.121 755.566C784.116 808.994 705.36 852.855 614.871 853C524.231 853.146 439.373 816.76 371.84 756.347C299.876 691.97 261.32 606.456 235.349 513.492C194.876 368.622 83.5633 194.916 183.597 82.5297C282.923 -29.0626 509.315 5.21335 654.871 39.1029Z" stroke="#146354"/>
<path fill-rule="evenodd" clip-rule="evenodd" d="M638.871 39.1029C744.017 63.5839 827.689 124.372 907.151 197.406C991.835 275.24 1068.65 398.666 1062.79 513.492C1056.99 627.047 932.92 688.385 841.121 755.566C768.116 808.994 689.36 852.855 598.871 853C508.231 853.146 423.373 816.76 355.84 756.347C283.876 691.97 245.32 606.456 219.349 513.492C178.876 368.622 67.5633 194.916 167.597 82.5297C266.923 -29.0626 493.315 5.21335 638.871 39.1029Z" stroke="#146354"/>
<path fill-rule="evenodd" clip-rule="evenodd" d="M604.219 609.013C554.083 579.858 553.541 507 516.65 461.788C482.355 419.759 410.405 410.07 398.324 356.681C386.225 303.214 426.944 252.079 459.156 207.717C488.263 167.629 529.379 142.37 571.866 117.679C619.18 90.1823 665.205 54.0436 719.4 56.477C777.892 59.1033 840.291 82.4921 873.721 131.232C906.198 178.583 884.052 242.437 886.671 300.355C889.086 353.766 903.388 405.465 888.447 456.866C870.18 519.711 850.025 591.999 793.029 622.509C735.539 653.283 660.226 641.583 604.219 609.013Z" fill="#59DBB7"/>
</svg>
